<?xml version="1.0" encoding="UTF-8" standalone="no"?>
<svg width="1000px" height="266px" viewBox="0 0 1000 266" version="1.1" xmlns="http://www.w3.org/2000/svg" xmlns:xlink="http://www.w3.org/1999/xlink" xmlns:sketch="http://www.bohemiancoding.com/sketch/ns">
    <!-- Generator: Sketch 3.3.1 (12005) - http://www.bohemiancoding.com/sketch -->
    <title>Queue</title>
    <desc>Created with Sketch.</desc>
    <defs></defs>
    <g id="Page-1" stroke="none" stroke-width="1" fill="none" fill-rule="evenodd" sketch:type="MSPage">
        <g id="Queue" sketch:type="MSArtboardGroup">
            <text id="Mac" sketch:type="MSTextLayer" font-family="Helvetica Neue" font-size="50" font-weight="420" fill="#000000">
                <tspan x="54" y="71">Mac</tspan>
            </text>
            <g id="Path-3" sketch:type="MSLayerGroup" transform="translate(323.000000, 50.000000)" stroke-width="4" stroke="#417505">
                <path d="M11.6177078,52 L11.6177079,0.106315613 L0.98959976,0.106315613 L16.2685848,0.106315613 L23.0104002,0.106315613" sketch:type="MSShapeGroup"></path>
            </g>
            <g id="Path-3-Copy" sketch:type="MSLayerGroup" transform="translate(323.000000, 166.000000)" stroke-width="4" stroke="#830010">
                <path d="M11.6177078,51.8936844 L11.6177079,7.10542736e-15 L0.98959976,8.40699522e-15 L16.2685848,8.40699522e-15 L23.0104002,8.40699522e-15" sketch:type="MSShapeGroup" transform="translate(12.000000, 25.946842) scale(1, -1) translate(-12.000000, -25.946842) "></path>
            </g>
            <g id="Oval-1-+-1" sketch:type="MSLayerGroup" transform="translate(302.000000, 102.000000)">
                <circle id="Oval-1" stroke="#979797" stroke-width="4" fill="#F6F6F6" sketch:type="MSShapeGroup" cx="32" cy="32" r="32"></circle>
                <text id="1" sketch:type="MSTextLayer" font-family="Helvetica" font-size="36" font-weight="bold" fill="#4A4A4A">
                    <tspan x="22" y="44">1</tspan>
                </text>
            </g>
            <g id="Path-4-+-Path-5" sketch:type="MSLayerGroup" transform="translate(265.000000, 155.000000)" stroke="#979797">
                <path d="M37.5595972,0.650981549 C45.6827916,5.02429358 53.2284229,14.1092189 45.8063474,22.1841615 C38.3842719,30.2591041 8.28363611,39.3434157 8.28363611,39.3434157" id="Path-4" stroke-width="4" sketch:type="MSShapeGroup"></path>
                <path d="M8.08769176,34.0883591 C7.86635346,33.5805994 7.43467643,33.5427764 7.12944456,33.995091 L0.662997921,43.577537 C0.35511091,44.0337862 0.54964366,44.4036492 1.10561167,44.4036492 L11.5841533,44.4036491 C12.1364891,44.4036491 12.4041394,43.9904773 12.1834773,43.4842689 L8.08769176,34.0883591 Z" id="Path-5" fill="#9B9B9B" sketch:type="MSShapeGroup" transform="translate(6.394867, 39.082669) rotate(3.000000) translate(-6.394867, -39.082669) "></path>
            </g>
            <g id="Path-5-Copy-+-Path-7" sketch:type="MSLayerGroup" transform="translate(367.000000, 128.000000)" stroke="#4990E2">
                <path d="M110.572612,0.673767889 C110.350113,0.16834785 109.974974,0.155047863 109.729751,0.654164119 L104.755861,10.7777993 C104.51286,11.2723925 104.764711,11.6733395 105.320409,11.6733395 L114.410358,11.6733394 C114.965151,11.6733394 115.234348,11.263208 115.012029,10.7581955 L110.572612,0.673767889 Z" id="Path-5-Copy" fill="#4990E2" sketch:type="MSShapeGroup" transform="translate(109.875314, 5.986958) rotate(91.000000) translate(-109.875314, -5.986958) "></path>
                <path d="M0.643792344,6 L106.597398,6" id="Path-7" stroke-width="4" sketch:type="MSShapeGroup"></path>
            </g>
            <g id="Path-5-Copy-+-Path-7-Copy-Copy" sketch:type="MSLayerGroup" transform="translate(176.000000, 128.000000)" stroke="#4990E2">
                <path d="M110.572612,0.673767889 C110.350113,0.16834785 109.974974,0.155047863 109.729751,0.654164119 L104.755861,10.7777993 C104.51286,11.2723925 104.764711,11.6733395 105.320409,11.6733395 L114.410358,11.6733394 C114.965151,11.6733394 115.234348,11.263208 115.012029,10.7581955 L110.572612,0.673767889 Z" id="Path-5-Copy" fill="#4990E2" sketch:type="MSShapeGroup" transform="translate(109.875314, 5.986958) rotate(91.000000) translate(-109.875314, -5.986958) "></path>
                <path d="M0.643792344,6 L106.597398,6" id="Path-7" stroke-width="4" sketch:type="MSShapeGroup"></path>
            </g>
            <g id="Path-3-Copy-3" sketch:type="MSLayerGroup" transform="translate(510.000000, 50.000000)" stroke-width="4" stroke="#417505">
                <path d="M11.6177078,52 L11.6177079,0.106315613 L0.98959976,0.106315613 L16.2685848,0.106315613 L23.0104002,0.106315613" sketch:type="MSShapeGroup"></path>
            </g>
            <g id="Path-3-Copy-2" sketch:type="MSLayerGroup" transform="translate(510.000000, 166.000000)" stroke-width="4" stroke="#830010">
                <g sketch:type="MSShapeGroup">
                    <path d="M11.6177078,51.8936844 L11.6177079,7.10542736e-15 L0.98959976,8.40699522e-15 L16.2685848,8.40699522e-15 L23.0104002,8.40699522e-15" transform="translate(12.000000, 25.946842) scale(1, -1) translate(-12.000000, -25.946842) "></path>
                </g>
            </g>
            <g id="Oval-1-Copy-+-2" sketch:type="MSLayerGroup" transform="translate(492.000000, 102.000000)">
                <circle id="Oval-1-Copy" stroke="#979797" stroke-width="4" fill="#F6F6F6" sketch:type="MSShapeGroup" cx="32" cy="32" r="32"></circle>
                <text id="2" opacity="0.75" sketch:type="MSTextLayer" font-family="Helvetica" font-size="36" font-weight="bold" fill="#4A4A4A">
                    <tspan x="22" y="44">2</tspan>
                </text>
            </g>
            <g id="Path-4-+-Path-5-Copy" sketch:type="MSLayerGroup" transform="translate(452.000000, 155.000000)" stroke="#979797">
                <path d="M37.5595972,0.650981549 C45.6827916,5.02429358 53.2284229,14.1092189 45.8063474,22.1841615 C38.3842719,30.2591041 8.28363611,39.3434157 8.28363611,39.3434157" id="Path-4" stroke-width="4" sketch:type="MSShapeGroup"></path>
                <path d="M8.08769176,34.0883591 C7.86635346,33.5805994 7.43467643,33.5427764 7.12944456,33.995091 L0.662997921,43.577537 C0.35511091,44.0337862 0.54964366,44.4036492 1.10561167,44.4036492 L11.5841533,44.4036491 C12.1364891,44.4036491 12.4041394,43.9904773 12.1834773,43.4842689 L8.08769176,34.0883591 Z" id="Path-5" fill="#9B9B9B" sketch:type="MSShapeGroup" transform="translate(6.394867, 39.082669) rotate(3.000000) translate(-6.394867, -39.082669) "></path>
            </g>
            <g id="Path-5-Copy-+-Path-7-Copy" sketch:type="MSLayerGroup" transform="translate(557.000000, 128.000000)" stroke="#4990E2">
                <path d="M112.084035,4.10048647 C111.582151,2.96042324 110.580269,0.684582625 110.580269,0.684582625 C110.356728,0.176795574 109.980744,0.161576744 109.735521,0.660693 L104.761631,10.7843282 C104.51863,11.2789214 104.770481,11.6798684 105.32618,11.6798684 L114.416128,11.6798683 C114.970921,11.6798683 115.238748,11.2666225 115.014418,10.7570423 C115.014418,10.7570423 113.061957,6.3218991 112.084035,4.10048647 Z" id="Path-5-Copy" fill="#4990E2" sketch:type="MSShapeGroup" transform="translate(109.881407, 5.987388) rotate(91.000000) translate(-109.881407, -5.987388) "></path>
                <path d="M0.643792344,6 L106.597398,6" id="Path-7" stroke-width="4" sketch:type="MSShapeGroup"></path>
            </g>
            <g id="Path-3-Copy-5" sketch:type="MSLayerGroup" transform="translate(704.000000, 50.000000)" stroke-width="4" stroke="#417505">
                <path d="M11.6177078,52 L11.6177079,0.106315613 L0.98959976,0.106315613 L16.2685848,0.106315613 L23.0104002,0.106315613" sketch:type="MSShapeGroup"></path>
            </g>
            <g id="Path-3-Copy-4" sketch:type="MSLayerGroup" transform="translate(704.000000, 166.000000)" stroke-width="4" stroke="#830010">
                <path d="M11.6177078,51.8936844 L11.6177079,7.10542736e-15 L0.98959976,8.40699522e-15 L16.2685848,8.40699522e-15 L23.0104002,8.40699522e-15" sketch:type="MSShapeGroup" transform="translate(12.000000, 25.946842) scale(1, -1) translate(-12.000000, -25.946842) "></path>
            </g>
            <g id="Oval-1-Copy-2-+-3" sketch:type="MSLayerGroup" transform="translate(683.000000, 102.000000)">
                <circle id="Oval-1-Copy-2" stroke="#979797" stroke-width="4" fill="#F6F6F6" sketch:type="MSShapeGroup" cx="32" cy="32" r="32"></circle>
                <text id="3+" opacity="0.5" sketch:type="MSTextLayer" font-family="Helvetica" font-size="28" font-weight="bold" sketch:alignment="middle" fill="#4A4A4A">
                    <tspan x="16.0380859" y="40">3+</tspan>
                </text>
            </g>
            <g id="Path-4-+-Path-5-Copy-2" sketch:type="MSLayerGroup" transform="translate(646.000000, 155.000000)" stroke="#979797">
                <path d="M37.5595972,0.650981549 C45.6827916,5.02429358 53.2284229,14.1092189 45.8063474,22.1841615 C38.3842719,30.2591041 8.28363611,39.3434157 8.28363611,39.3434157" id="Path-4" stroke-width="4" sketch:type="MSShapeGroup"></path>
                <path d="M8.08769176,34.0883591 C7.86635346,33.5805994 7.43467643,33.5427764 7.12944456,33.995091 L0.662997921,43.577537 C0.35511091,44.0337862 0.54964366,44.4036492 1.10561167,44.4036492 L11.5841533,44.4036491 C12.1364891,44.4036491 12.4041394,43.9904773 12.1834773,43.4842689 L8.08769176,34.0883591 Z" id="Path-5" fill="#9B9B9B" sketch:type="MSShapeGroup" transform="translate(6.394867, 39.082669) rotate(3.000000) translate(-6.394867, -39.082669) "></path>
            </g>
            <g id="Queue-Symbol" sketch:type="MSLayerGroup" transform="translate(37.000000, 108.000000)" stroke="#979797" stroke-width="4">
                <rect id="Rectangle-1" fill="#D8D8D8" sketch:type="MSShapeGroup" x="0.771953909" y="0" width="142.456092" height="52"></rect>
                <path d="M21,5.59383155 L21,47.7669085" id="Line" stroke-linecap="square" sketch:type="MSShapeGroup"></path>
                <path d="M41,5.59383155 L41,47.7669085" id="Line-Copy" stroke-linecap="square" sketch:type="MSShapeGroup"></path>
                <path d="M61,5.59383155 L61,47.7669085" id="Line-Copy-2" stroke-linecap="square" sketch:type="MSShapeGroup"></path>
                <path d="M82,5.59383155 L82,47.7669085" id="Line-Copy-3" stroke-linecap="square" sketch:type="MSShapeGroup"></path>
                <path d="M102,5.59383155 L102,47.7669085" id="Line-Copy-4" stroke-linecap="square" sketch:type="MSShapeGroup"></path>
                <path d="M122,5.59383155 L122,47.7669085" id="Line-Copy-5" stroke-linecap="square" sketch:type="MSShapeGroup"></path>
            </g>
            <g id="Rectangle-2-+-100%-copy-+-2–55s-(x̅:-5s)-copy" sketch:type="MSLayerGroup" transform="translate(305.000000, 10.000000)">
                <rect id="Rectangle-2" stroke="#D3D3D3" stroke-width="2" fill-opacity="0.9" fill="#F6F4EC" sketch:type="MSShapeGroup" x="0" y="0.3625" width="58" height="32.075" rx="8"></rect>
                <text id="100%-copy" sketch:type="MSTextLayer" font-family="Helvetica Neue" font-size="10.875" font-weight="bold" sketch:alignment="middle" fill="#4A4A4A">
                    <tspan x="18.062875" y="14">50%</tspan>
                </text>
                <text id="2–55s-(x̅:-5s)-copy" sketch:type="MSTextLayer" font-family="Helvetica Neue" font-size="7.25" font-weight="normal" sketch:alignment="middle" fill="#9B9B9B">
                    <tspan x="8.046875" y="25.075">2–55s (x̅: 5s)</tspan>
                </text>
            </g>
            <g id="Rectangle-2-+-100%-copy-+-2–55s-(x̅:-5s)-copy-Copy-Copy" sketch:type="MSLayerGroup" transform="translate(305.000000, 224.000000)">
                <rect id="Rectangle-2" stroke="#D3D3D3" stroke-width="2" fill-opacity="0.9" fill="#F6F4EC" sketch:type="MSShapeGroup" x="0" y="0.3625" width="58" height="32.075" rx="8"></rect>
                <text id="100%-copy" sketch:type="MSTextLayer" font-family="Helvetica Neue" font-size="10.875" font-weight="bold" sketch:alignment="middle" fill="#4A4A4A">
                    <tspan x="18.062875" y="14">30%</tspan>
                </text>
                <text id="2–55s-(x̅:-5s)-copy" sketch:type="MSTextLayer" font-family="Helvetica Neue" font-size="7.25" font-weight="normal" sketch:alignment="middle" fill="#9B9B9B">
                    <tspan x="8.046875" y="25.075">2–55s (x̅: 5s)</tspan>
                </text>
            </g>
            <g id="Rectangle-2-+-100%-copy-+-2–55s-(x̅:-5s)-copy-Copy-Copy-Copy-Copy-Copy-Copy-Copy-Copy-Copy" sketch:type="MSLayerGroup" transform="translate(200.000000, 194.000000)">
                <rect id="Rectangle-2" stroke="#D3D3D3" stroke-width="2" fill-opacity="0.9" fill="#F6F4EC" sketch:type="MSShapeGroup" x="0" y="0.3625" width="58" height="32.075" rx="8"></rect>
                <text id="100%-copy" sketch:type="MSTextLayer" font-family="Helvetica Neue" font-size="10.875" font-weight="bold" sketch:alignment="middle" fill="#4A4A4A">
                    <tspan x="18.062875" y="14">10%</tspan>
                </text>
                <text id="2–55s-(x̅:-5s)-copy" sketch:type="MSTextLayer" font-family="Helvetica Neue" font-size="7.25" font-weight="normal" sketch:alignment="middle" fill="#9B9B9B">
                    <tspan x="8.046875" y="25.075">2–55s (x̅: 5s)</tspan>
                </text>
            </g>
            <g id="Rectangle-2-+-100%-copy-+-2–55s-(x̅:-5s)-copy-Copy-Copy-Copy-Copy-Copy-Copy-Copy-Copy-Copy-Copy" sketch:type="MSLayerGroup" transform="translate(390.000000, 194.000000)">
                <rect id="Rectangle-2" stroke="#D3D3D3" stroke-width="2" fill-opacity="0.9" fill="#F6F4EC" sketch:type="MSShapeGroup" x="0" y="0.3625" width="58" height="32.075" rx="8"></rect>
                <text id="100%-copy" sketch:type="MSTextLayer" font-family="Helvetica Neue" font-size="10.875" font-weight="bold" sketch:alignment="middle" fill="#4A4A4A">
                    <tspan x="21.086125" y="14">2%</tspan>
                </text>
                <text id="2–55s-(x̅:-5s)-copy" sketch:type="MSTextLayer" font-family="Helvetica Neue" font-size="7.25" font-weight="normal" sketch:alignment="middle" fill="#9B9B9B">
                    <tspan x="8.046875" y="25.075">2–55s (x̅: 5s)</tspan>
                </text>
            </g>
            <g id="Rectangle-2-+-100%-copy-+-2–55s-(x̅:-5s)-copy-Copy-Copy-Copy-Copy-Copy-Copy-Copy-Copy-Copy-Copy-Copy" sketch:type="MSLayerGroup" transform="translate(580.000000, 194.000000)">
                <rect id="Rectangle-2" stroke="#D3D3D3" stroke-width="2" fill-opacity="0.9" fill="#F6F4EC" sketch:type="MSShapeGroup" x="0" y="0.3625" width="58" height="32.075" rx="8"></rect>
                <text id="100%-copy" sketch:type="MSTextLayer" font-family="Helvetica Neue" font-size="10.875" font-weight="bold" sketch:alignment="middle" fill="#4A4A4A">
                    <tspan x="16.55125" y="14">1.5%</tspan>
                </text>
                <text id="2–55s-(x̅:-5s)-copy" sketch:type="MSTextLayer" font-family="Helvetica Neue" font-size="7.25" font-weight="normal" sketch:alignment="middle" fill="#9B9B9B">
                    <tspan x="8.046875" y="25.075">2–55s (x̅: 5s)</tspan>
                </text>
            </g>
            <g id="Rectangle-2-+-100%-copy-+-2–55s-(x̅:-5s)-copy-Copy-Copy-Copy-Copy" sketch:type="MSLayerGroup" transform="translate(492.000000, 10.000000)">
                <rect id="Rectangle-2" stroke="#D3D3D3" stroke-width="2" fill-opacity="0.9" fill="#F6F4EC" sketch:type="MSShapeGroup" x="0" y="0.3625" width="58" height="32.075" rx="8"></rect>
                <text id="100%-copy" sketch:type="MSTextLayer" font-family="Helvetica Neue" font-size="10.875" font-weight="bold" sketch:alignment="middle" fill="#4A4A4A">
                    <tspan x="21.086125" y="14">1%</tspan>
                </text>
                <text id="2–55s-(x̅:-5s)-copy" sketch:type="MSTextLayer" font-family="Helvetica Neue" font-size="7.25" font-weight="normal" sketch:alignment="middle" fill="#9B9B9B">
                    <tspan x="8.046875" y="25.075">2–55s (x̅: 5s)</tspan>
                </text>
            </g>
            <g id="Rectangle-2-+-100%-copy-+-2–55s-(x̅:-5s)-copy-Copy-Copy-Copy" sketch:type="MSLayerGroup" transform="translate(492.000000, 224.000000)">
                <rect id="Rectangle-2" stroke="#D3D3D3" stroke-width="2" fill-opacity="0.9" fill="#F6F4EC" sketch:type="MSShapeGroup" x="0" y="0.3625" width="58" height="32.075" rx="8"></rect>
                <text id="100%-copy" sketch:type="MSTextLayer" font-family="Helvetica Neue" font-size="10.875" font-weight="bold" sketch:alignment="middle" fill="#4A4A4A">
                    <tspan x="21.086125" y="14">4%</tspan>
                </text>
                <text id="2–55s-(x̅:-5s)-copy" sketch:type="MSTextLayer" font-family="Helvetica Neue" font-size="7.25" font-weight="normal" sketch:alignment="middle" fill="#9B9B9B">
                    <tspan x="8.046875" y="25.075">2–55s (x̅: 5s)</tspan>
                </text>
            </g>
            <g id="Rectangle-2-+-100%-copy-+-2–55s-(x̅:-5s)-copy-Copy-Copy-Copy-Copy-Copy-Copy" sketch:type="MSLayerGroup" transform="translate(687.000000, 10.000000)">
                <rect id="Rectangle-2" stroke="#D3D3D3" stroke-width="2" fill-opacity="0.9" fill="#F6F4EC" sketch:type="MSShapeGroup" x="0" y="0.3625" width="58" height="32.075" rx="8"></rect>
                <text id="100%-copy" sketch:type="MSTextLayer" font-family="Helvetica Neue" font-size="10.875" font-weight="bold" sketch:alignment="middle" fill="#4A4A4A">
                    <tspan x="16.55125" y="14">0.5%</tspan>
                </text>
                <text id="2–55s-(x̅:-5s)-copy" sketch:type="MSTextLayer" font-family="Helvetica Neue" font-size="7.25" font-weight="normal" sketch:alignment="middle" fill="#9B9B9B">
                    <tspan x="8.046875" y="25.075">2–55s (x̅: 5s)</tspan>
                </text>
            </g>
            <g id="Rectangle-2-+-100%-copy-+-2–55s-(x̅:-5s)-copy-Copy-Copy-Copy-Copy-Copy" sketch:type="MSLayerGroup" transform="translate(687.000000, 224.000000)">
                <rect id="Rectangle-2" stroke="#D3D3D3" stroke-width="2" fill-opacity="0.9" fill="#F6F4EC" sketch:type="MSShapeGroup" x="0" y="0.3625" width="58" height="32.075" rx="8"></rect>
                <text id="100%-copy" sketch:type="MSTextLayer" font-family="Helvetica Neue" font-size="10.875" font-weight="bold" sketch:alignment="middle" fill="#4A4A4A">
                    <tspan x="21.086125" y="14">1%</tspan>
                </text>
                <text id="2–55s-(x̅:-5s)-copy" sketch:type="MSTextLayer" font-family="Helvetica Neue" font-size="7.25" font-weight="normal" sketch:alignment="middle" fill="#9B9B9B">
                    <tspan x="8.046875" y="25.075">2–55s (x̅: 5s)</tspan>
                </text>
            </g>
            <g id="Rectangle-2-+-100%-copy-+-2–55s-(x̅:-5s)-copy-Copy" sketch:type="MSLayerGroup" transform="translate(199.000000, 117.000000)">
                <rect id="Rectangle-2" stroke="#D3D3D3" stroke-width="2" fill-opacity="0.9" fill="#F6F4EC" sketch:type="MSShapeGroup" x="0" y="0.3625" width="58" height="32.075" rx="8"></rect>
                <text id="100%-copy" sketch:type="MSTextLayer" font-family="Helvetica Neue" font-size="10.875" font-weight="bold" sketch:alignment="middle" fill="#4A4A4A">
                    <tspan x="15.039625" y="14">100%</tspan>
                </text>
                <text id="2–55s-(x̅:-5s)-copy" sketch:type="MSTextLayer" font-family="Helvetica Neue" font-size="7.25" font-weight="normal" sketch:alignment="middle" fill="#9B9B9B">
                    <tspan x="8.046875" y="25.075">2–55s (x̅: 5s)</tspan>
                </text>
            </g>
            <g id="Rectangle-2-+-100%-copy-+-2–55s-(x̅:-5s)-copy-Copy-Copy-Copy-Copy-Copy-Copy-Copy" sketch:type="MSLayerGroup" transform="translate(391.000000, 117.000000)">
                <rect id="Rectangle-2" stroke="#D3D3D3" stroke-width="2" fill-opacity="0.9" fill="#F6F4EC" sketch:type="MSShapeGroup" x="0" y="0.3625" width="58" height="32.075" rx="8"></rect>
                <text id="100%-copy" sketch:type="MSTextLayer" font-family="Helvetica Neue" font-size="10.875" font-weight="bold" sketch:alignment="middle" fill="#4A4A4A">
                    <tspan x="18.062875" y="14">10%</tspan>
                </text>
                <text id="2–55s-(x̅:-5s)-copy" sketch:type="MSTextLayer" font-family="Helvetica Neue" font-size="7.25" font-weight="normal" sketch:alignment="middle" fill="#9B9B9B">
                    <tspan x="8.046875" y="25.075">2–55s (x̅: 5s)</tspan>
                </text>
            </g>
            <g id="Rectangle-2-+-100%-copy-+-2–55s-(x̅:-5s)-copy-Copy-Copy-Copy-Copy-Copy-Copy-Copy-Copy" sketch:type="MSLayerGroup" transform="translate(581.000000, 117.000000)">
                <rect id="Rectangle-2" stroke="#D3D3D3" stroke-width="2" fill-opacity="0.9" fill="#F6F4EC" sketch:type="MSShapeGroup" x="0" y="0.3625" width="58" height="32.075" rx="8"></rect>
                <text id="100%-copy" sketch:type="MSTextLayer" font-family="Helvetica Neue" font-size="10.875" font-weight="bold" sketch:alignment="middle" fill="#4A4A4A">
                    <tspan x="21.086125" y="14">3%</tspan>
                </text>
                <text id="2–55s-(x̅:-5s)-copy" sketch:type="MSTextLayer" font-family="Helvetica Neue" font-size="7.25" font-weight="normal" sketch:alignment="middle" fill="#9B9B9B">
                    <tspan x="8.046875" y="25.075">2–55s (x̅: 5s)</tspan>
                </text>
            </g>
            <g id="Legend" sketch:type="MSLayerGroup" transform="translate(823.000000, 33.000000)">
                <rect id="Rectangle-14" stroke="#D3D3D3" stroke-width="2" fill-opacity="0.9" fill="#F6F4EC" sketch:type="MSShapeGroup" x="0" y="0" width="138" height="201"></rect>
                <g id="Path-3-Copy-6-+-PASS" transform="translate(16.000000, 15.000000)">
                    <g id="Path-3-Copy-6" transform="translate(17.000000, 13.000000) rotate(90.000000) translate(-17.000000, -13.000000) translate(5.000000, -3.500000)" stroke="#417505" stroke-width="4" sketch:type="MSShapeGroup">
                        <path d="M11.6177078,33 L11.6177079,0.0674695235 L0.98959976,0.0674695235 L16.2685848,0.0674695235 L23.0104002,0.0674695235" id="Path-3-Copy-5"></path>
                    </g>
                    <text id="PASS" sketch:type="MSTextLayer" font-family="Helvetica Neue" font-size="14" font-weight="420" sketch:alignment="middle" fill="#7D7D7D">
                        <tspan x="57.608" y="19">PASS</tspan>
                    </text>
                </g>
                <g id="Path-3-Copy-7-+-FAIL" transform="translate(17.000000, 53.000000)">
                    <g id="Path-3-Copy-7" transform="translate(17.000000, 11.500000) rotate(-90.000000) translate(-17.000000, -11.500000) translate(6.000000, -5.000000)" stroke="#830010" stroke-width="4" sketch:type="MSShapeGroup">
                        <path d="M10.6495655,32.9120852 L10.6495656,3.55271368e-15 L0.907133113,4.37819587e-15 L14.9128694,4.37819587e-15 L21.0928669,4.37819587e-15" id="Path-3-Copy" transform="translate(11.000000, 16.456043) scale(1, -1) translate(-11.000000, -16.456043) "></path>
                    </g>
                    <text id="FAIL" sketch:type="MSTextLayer" font-family="Helvetica Neue" font-size="14" font-weight="420" sketch:alignment="middle" fill="#7D7D7D">
                        <tspan x="61.101" y="17">FAIL</tspan>
                    </text>
                </g>
                <g id="Path-5-Copy-+-Path-7-Copy-Copy-Copy-+-RETRY" transform="translate(14.000000, 92.000000)">
                    <g id="Path-5-Copy-+-Path-7-Copy-Copy-Copy" transform="translate(0.000000, 3.250000)" stroke="#4990E2" sketch:type="MSShapeGroup">
                        <path d="M37.0840353,4.10048647 C36.5821509,2.96042324 35.580269,0.684582625 35.580269,0.684582625 C35.3567284,0.176795574 34.9807441,0.161576744 34.735521,0.660693 L29.7616312,10.7843282 C29.5186304,11.2789214 29.770481,11.6798684 30.3261796,11.6798684 L39.4161285,11.6798683 C39.9709208,11.6798683 40.2387477,11.2666225 40.0144177,10.7570423 C40.0144177,10.7570423 38.0619567,6.3218991 37.0840353,4.10048647 Z" id="Path-5-Copy" fill="#4990E2" transform="translate(34.881407, 5.987388) rotate(91.000000) translate(-34.881407, -5.987388) "></path>
                        <path d="M1.39796145,6 L31.5973985,6" id="Path-7" stroke-width="4"></path>
                    </g>
                    <text id="RETRY" sketch:type="MSTextLayer" font-family="Helvetica Neue" font-size="14" font-weight="420" sketch:alignment="middle" fill="#7D7D7D">
                        <tspan x="54.806" y="14.75">RETRY</tspan>
                    </text>
                </g>
                <g id="Path-5-Copy-+-Path-7-Copy-Copy-Copy-Copy-+-QUIT" transform="translate(16.000000, 129.000000)">
                    <g id="Path-5-Copy-+-Path-7-Copy-Copy-Copy-Copy" transform="translate(20.500000, 9.000000) scale(-1, 1) translate(-20.500000, -9.000000) translate(0.000000, 3.000000)" stroke="#9B9B9B" sketch:type="MSShapeGroup">
                        <path d="M37.0840353,4.10048647 C36.5821509,2.96042324 35.580269,0.684582625 35.580269,0.684582625 C35.3567284,0.176795574 34.9807441,0.161576744 34.735521,0.660693 L29.7616312,10.7843282 C29.5186304,11.2789214 29.770481,11.6798684 30.3261796,11.6798684 L39.4161285,11.6798683 C39.9709208,11.6798683 40.2387477,11.2666225 40.0144177,10.7570423 C40.0144177,10.7570423 38.0619567,6.3218991 37.0840353,4.10048647 Z" id="Path-5-Copy" fill="#9B9B9B" transform="translate(34.881407, 5.987388) rotate(91.000000) translate(-34.881407, -5.987388) "></path>
                        <path d="M1.39796145,6 L31.5973985,6" id="Path-7" stroke-width="4"></path>
                    </g>
                    <text id="ABORT" sketch:type="MSTextLayer" font-family="Helvetica Neue" font-size="14" font-weight="420" sketch:alignment="middle" fill="#7D7D7D">
                        <tspan x="53.63" y="14.5">ABORT</tspan>
                    </text>
                </g>
                <g id="TRY-#-+-Oval-1-+-1-Copy" transform="translate(25.000000, 160.000000)">
                    <text id="TRY-#" sketch:type="MSTextLayer" font-family="Helvetica Neue" font-size="14" font-weight="420" sketch:alignment="middle" fill="#7D7D7D">
                        <tspan x="48.306" y="17.5">TRY #</tspan>
                    </text>
                    <g id="Oval-1-+-1-Copy">
                        <circle id="Oval-1" stroke="#979797" stroke-width="1.60000002" fill="#F6F6F6" sketch:type="MSShapeGroup" cx="13" cy="13" r="13"></circle>
                        <text id="1" sketch:type="MSTextLayer" font-family="Helvetica" font-size="14.4000002" font-weight="bold" fill="#4A4A4A">
                            <tspan x="8.9375" y="17.65625">1</tspan>
                        </text>
                    </g>
                </g>
            </g>
        </g>
    </g>
</svg>
